<svg width="20" height="20" viewBox="0 0 20 20" fill="none" xmlns="http://www.w3.org/2000/svg">
<path d="M10.7503 6.66669C10.7503 6.25247 10.4145 5.91669 10.0003 5.91669C9.58611 5.91669 9.25033 6.25247 9.25033 6.66669L10.7503 6.66669ZM12.5003 11.5834C12.9145 11.5834 13.2503 11.2476 13.2503 10.8334C13.2503 10.4191 12.9145 10.0834 12.5003 10.0834V11.5834ZM2.0318 2.1227C1.70836 2.38146 1.65592 2.85343 1.91467 3.17688C2.17343 3.50032 2.6454 3.55276 2.96885 3.29401L2.0318 2.1227ZM5.05218 1.62734C5.37563 1.36858 5.42807 0.896612 5.16931 0.573166C4.91055 0.249719 4.43858 0.197278 4.11514 0.456035L5.05218 1.62734ZM17.0318 3.29401C17.3553 3.55276 17.8272 3.50032 18.086 3.17688C18.3447 2.85343 18.2923 2.38146 17.9688 2.1227L17.0318 3.29401ZM15.8855 0.456035C15.5621 0.197278 15.0901 0.249719 14.8313 0.573166C14.5726 0.896612 14.625 1.36858 14.9485 1.62734L15.8855 0.456035ZM10.0003 9.58335H9.25033H10.0003ZM9.25033 6.66669L9.25033 9.58335H10.7503V6.66669L9.25033 6.66669ZM17.5837 10C17.5837 14.1882 14.1885 17.5834 10.0003 17.5834V19.0834C15.0169 19.0834 19.0837 15.0166 19.0837 10H17.5837ZM10.0003 17.5834C5.81217 17.5834 2.41699 14.1882 2.41699 10H0.916992C0.916992 15.0166 4.98374 19.0834 10.0003 19.0834V17.5834ZM2.41699 10C2.41699 5.81186 5.81217 2.41669 10.0003 2.41669V0.916687C4.98374 0.916687 0.916992 4.98343 0.916992 10H2.41699ZM10.0003 2.41669C14.1885 2.41669 17.5837 5.81186 17.5837 10H19.0837C19.0837 4.98343 15.0169 0.916687 10.0003 0.916687V2.41669ZM2.96885 3.29401L5.05218 1.62734L4.11514 0.456035L2.0318 2.1227L2.96885 3.29401ZM17.9688 2.1227L15.8855 0.456035L14.9485 1.62734L17.0318 3.29401L17.9688 2.1227ZM11.2503 11.5834H12.5003V10.0834H11.2503V11.5834ZM9.25033 9.58335C9.25033 10.6879 10.1458 11.5834 11.2503 11.5834V10.0834C10.9742 10.0834 10.7503 9.8595 10.7503 9.58335H9.25033Z" fill="#555555"/>
</svg>
