<svg width="15" height="15" viewBox="0 0 15 15" fill="none" xmlns="http://www.w3.org/2000/svg">
<path d="M14.0891 1.83904C14.3453 1.58276 14.3453 1.16724 14.0891 0.910961C13.8328 0.65468 13.4173 0.65468 13.161 0.910961L7.50001 6.57194L1.83904 0.910964C1.58276 0.654682 1.16724 0.654682 0.910961 0.910964C0.65468 1.16725 0.65468 1.58276 0.910961 1.83904L6.57193 7.50001L0.910985 13.161C0.654703 13.4172 0.654703 13.8328 0.910985 14.089C1.16727 14.3453 1.58278 14.3453 1.83906 14.089L7.50001 8.42809L13.161 14.089C13.4172 14.3453 13.8328 14.3453 14.089 14.089C14.3453 13.8328 14.3453 13.4172 14.089 13.161L8.42809 7.50001L14.0891 1.83904Z" fill="#222222"/>
</svg>
