<svg width="16" height="17" viewBox="0 0 16 17" fill="none" xmlns="http://www.w3.org/2000/svg">
<path d="M6.28577 12.7857V6.49998C6.28577 6.41665 6.25898 6.3482 6.20541 6.29463C6.15184 6.24106 6.08339 6.21427 6.00006 6.21427H5.42863C5.3453 6.21427 5.27684 6.24106 5.22327 6.29463C5.1697 6.3482 5.14292 6.41665 5.14292 6.49998V12.7857C5.14292 12.869 5.1697 12.9375 5.22327 12.991C5.27684 13.0446 5.3453 13.0714 5.42863 13.0714H6.00006C6.08339 13.0714 6.15184 13.0446 6.20541 12.991C6.25898 12.9375 6.28577 12.869 6.28577 12.7857ZM8.57148 12.7857V6.49998C8.57148 6.41665 8.54469 6.3482 8.49112 6.29463C8.43755 6.24106 8.3691 6.21427 8.28576 6.21427H7.71434C7.631 6.21427 7.56255 6.24106 7.50898 6.29463C7.45541 6.3482 7.42862 6.41665 7.42862 6.49998V12.7857C7.42862 12.869 7.45541 12.9375 7.50898 12.991C7.56255 13.0446 7.631 13.0714 7.71434 13.0714H8.28576C8.3691 13.0714 8.43755 13.0446 8.49112 12.991C8.54469 12.9375 8.57148 12.869 8.57148 12.7857ZM10.8572 12.7857V6.49998C10.8572 6.41665 10.8304 6.3482 10.7768 6.29463C10.7233 6.24106 10.6548 6.21427 10.5715 6.21427H10C9.91671 6.21427 9.84826 6.24106 9.79469 6.29463C9.74112 6.3482 9.71433 6.41665 9.71433 6.49998V12.7857C9.71433 12.869 9.74112 12.9375 9.79469 12.991C9.84826 13.0446 9.91671 13.0714 10 13.0714H10.5715C10.6548 13.0714 10.7233 13.0446 10.7768 12.991C10.8304 12.9375 10.8572 12.869 10.8572 12.7857ZM6.00006 3.92856H10L9.57147 2.88392C9.52981 2.83035 9.47921 2.79762 9.41969 2.78571H6.58934C6.52982 2.79762 6.47922 2.83035 6.43755 2.88392L6.00006 3.92856ZM14.2857 4.21428V4.7857C14.2857 4.86904 14.259 4.93749 14.2054 4.99106C14.1518 5.04463 14.0834 5.07142 14 5.07142H13.1429V13.5357C13.1429 14.0297 13.003 14.4568 12.7232 14.8169C12.4435 15.177 12.1072 15.3571 11.7143 15.3571H4.28578C3.89292 15.3571 3.55661 15.183 3.27685 14.8348C2.99709 14.4866 2.85721 14.0654 2.85721 13.5714V5.07142H2.00007C1.91674 5.07142 1.84828 5.04463 1.79471 4.99106C1.74114 4.93749 1.71436 4.86904 1.71436 4.7857V4.21428C1.71436 4.13094 1.74114 4.06249 1.79471 4.00892C1.84828 3.95535 1.91674 3.92856 2.00007 3.92856H4.75899L5.38399 2.4375C5.47327 2.21726 5.63399 2.02976 5.86613 1.875C6.09827 1.72024 6.33339 1.64286 6.57148 1.64286H9.42862C9.66671 1.64286 9.90183 1.72024 10.134 1.875C10.3661 2.02976 10.5268 2.21726 10.6161 2.4375L11.2411 3.92856H14C14.0834 3.92856 14.1518 3.95535 14.2054 4.00892C14.259 4.06249 14.2857 4.13094 14.2857 4.21428Z" fill="#29A7E1"/>
</svg>
