<svg width="13" height="15" viewBox="0 0 13 15" fill="none" xmlns="http://www.w3.org/2000/svg">
<path d="M5.6 9.313V1.2C5.6 1.01435 5.67375 0.836301 5.80503 0.705025C5.9363 0.57375 6.11435 0.5 6.3 0.5C6.48565 0.5 6.6637 0.57375 6.79498 0.705025C6.92625 0.836301 7 1.01435 7 1.2V9.313L9.31 7.003C9.44471 6.8892 9.61741 6.83045 9.79358 6.83847C9.96974 6.8465 10.1364 6.92072 10.2602 7.0463C10.384 7.17187 10.4558 7.33955 10.4614 7.51581C10.4669 7.69206 10.4057 7.86391 10.29 7.997L6.79 11.497C6.65915 11.6253 6.48323 11.6971 6.3 11.6971C6.11677 11.6971 5.94085 11.6253 5.81 11.497L2.31 7.997C2.19431 7.86391 2.1331 7.69206 2.13863 7.51581C2.14416 7.33955 2.21601 7.17187 2.33982 7.0463C2.46362 6.92072 2.63026 6.8465 2.80642 6.83847C2.98259 6.83045 3.15529 6.8892 3.29 7.003L5.6 9.313ZM0 11C0 10.8143 0.0737498 10.6363 0.205025 10.505C0.336301 10.3737 0.514349 10.3 0.7 10.3C0.885652 10.3 1.0637 10.3737 1.19497 10.505C1.32625 10.6363 1.4 10.8143 1.4 11V13.1H11.2V11C11.2 10.8143 11.2738 10.6363 11.405 10.505C11.5363 10.3737 11.7143 10.3 11.9 10.3C12.0857 10.3 12.2637 10.3737 12.395 10.505C12.5263 10.6363 12.6 10.8143 12.6 11V13.1C12.6 13.4713 12.4525 13.8274 12.1899 14.0899C11.9274 14.3525 11.5713 14.5 11.2 14.5H1.4C1.0287 14.5 0.672601 14.3525 0.41005 14.0899C0.1475 13.8274 0 13.4713 0 13.1V11Z" fill="#0D6FB8"/>
</svg>
