<svg width="20" height="20" viewBox="0 0 20 20" fill="none" xmlns="http://www.w3.org/2000/svg">
<path d="M12.8573 10C12.8573 9.21131 12.5783 8.53795 12.0202 7.97991C11.4622 7.42188 10.7888 7.14286 10.0001 7.14286C9.21145 7.14286 8.53809 7.42188 7.98005 7.97991C7.42201 8.53795 7.143 9.21131 7.143 10C7.143 10.7887 7.42201 11.4621 7.98005 12.0201C8.53809 12.5781 9.21145 12.8571 10.0001 12.8571C10.7888 12.8571 11.4622 12.5781 12.0202 12.0201C12.5783 11.4621 12.8573 10.7887 12.8573 10ZM18.5716 8.78348V11.2612C18.5716 11.3504 18.5418 11.436 18.4823 11.5179C18.4228 11.5997 18.3484 11.6481 18.2591 11.6629L16.1943 11.9754C16.053 12.3772 15.9079 12.7158 15.7591 12.9911C16.0195 13.3631 16.4175 13.8765 16.9533 14.5312C17.0277 14.6205 17.0649 14.7135 17.0649 14.8103C17.0649 14.907 17.0314 14.9926 16.9644 15.067C16.7635 15.3423 16.3952 15.744 15.8595 16.2723C15.3238 16.8006 14.9741 17.0647 14.8104 17.0647C14.7211 17.0647 14.6244 17.0312 14.5202 16.9643L12.98 15.7589C12.6527 15.9301 12.3141 16.0714 11.9644 16.183C11.8454 17.1949 11.7375 17.8869 11.6408 18.2589C11.5887 18.4673 11.4548 18.5714 11.239 18.5714H8.7613C8.65713 18.5714 8.56599 18.5398 8.48786 18.4766C8.40974 18.4133 8.36695 18.3333 8.35951 18.2366L8.04701 16.183C7.68243 16.064 7.34761 15.9263 7.04255 15.7701L5.46889 16.9643C5.39448 17.0312 5.30148 17.0647 5.18987 17.0647C5.0857 17.0647 4.9927 17.0238 4.91085 16.942C3.97335 16.0937 3.35951 15.4687 3.06934 15.067C3.01725 14.9926 2.99121 14.907 2.99121 14.8103C2.99121 14.721 3.02097 14.6354 3.0805 14.5536C3.1921 14.3973 3.38184 14.1499 3.64969 13.8114C3.91755 13.4728 4.11844 13.2106 4.25237 13.0246C4.05148 12.6525 3.89895 12.2842 3.79478 11.9196L1.75237 11.6183C1.65565 11.6034 1.57752 11.5569 1.518 11.4788C1.45847 11.4007 1.42871 11.3132 1.42871 11.2165V8.73884C1.42871 8.64955 1.45847 8.56399 1.518 8.48214C1.57752 8.4003 1.6482 8.35193 1.73005 8.33705L3.80594 8.02455C3.91011 7.68229 4.0552 7.34003 4.24121 6.99777C3.94359 6.57366 3.54553 6.06027 3.04701 5.45759C2.97261 5.3683 2.93541 5.27902 2.93541 5.18973C2.93541 5.11533 2.96889 5.02976 3.03585 4.93304C3.22931 4.66518 3.59575 4.26525 4.13518 3.73326C4.67462 3.20126 5.02618 2.93527 5.18987 2.93527C5.2866 2.93527 5.38332 2.97247 5.48005 3.04688L7.02023 4.24107C7.34761 4.06994 7.68615 3.92857 8.03585 3.81696C8.1549 2.80506 8.26279 2.1131 8.35951 1.74107C8.4116 1.53274 8.54553 1.42857 8.7613 1.42857H11.239C11.3431 1.42857 11.4343 1.46019 11.5124 1.52344C11.5905 1.58668 11.6333 1.66667 11.6408 1.76339L11.9533 3.81696C12.3178 3.93601 12.6527 4.07366 12.9577 4.22991L14.5425 3.03571C14.6095 2.96875 14.6988 2.93527 14.8104 2.93527C14.9071 2.93527 15.0001 2.97247 15.0894 3.04688C16.0492 3.93229 16.6631 4.56473 16.9309 4.9442C16.983 5.00372 17.0091 5.08557 17.0091 5.18973C17.0091 5.27902 16.9793 5.36458 16.9198 5.44643C16.8082 5.60268 16.6184 5.85007 16.3506 6.18862C16.0827 6.52716 15.8818 6.78943 15.7479 6.97545C15.9414 7.34747 16.0939 7.71205 16.2055 8.0692L18.2479 8.3817C18.3446 8.39658 18.4228 8.44308 18.4823 8.52121C18.5418 8.59933 18.5716 8.68676 18.5716 8.78348Z" fill="#29A7E1"/>
</svg>
