<svg width="260" height="61" viewBox="0 0 260 61" fill="none" xmlns="http://www.w3.org/2000/svg">
<g clip-path="url(#clip0_471_3692)">
<path d="M104.488 12.5636H132.197V48.3216H104.488V12.5636ZM114.084 41.17H122.595V19.6971H114.084V41.17ZM155.5 34.6586H147.896V60.8852H138.092V7.79785H147.896V27.1809H155.5V34.6586Z" fill="#656464"/>
<path d="M186.579 8.81868H195.642V58.7289H186.579V34.5681H179.839C176.885 40.7955 171.812 46.1773 163.478 50.8283L158.043 44.5344C164.324 40.9707 168.423 37.1714 170.911 32.756L159.618 33.8855L158.533 26.293L173.625 25.7312C173.932 24.1427 174.171 22.4997 174.355 20.8024H161.407V13.5784H183.681C183.761 18.2063 183.297 22.8278 182.296 27.35H186.585L186.579 8.81868ZM207.725 60.8852H198.473V7.73145H207.725V60.8852Z" fill="#656464"/>
<path d="M247.144 36.7546C239.295 37.8841 231.991 37.9989 220.336 37.9989H215.33V11.3737H242.8V18.5071H225.03V21.1709H241.029V28.1413H225.048V30.9197C233.743 30.8593 239.662 30.6298 246.237 29.6694L247.144 36.7546ZM260.012 50.6893C260.012 57.2611 252.475 61 240.404 61C228.332 61 220.844 57.2611 220.844 50.6893C220.844 44.1176 228.387 40.3183 240.404 40.3183C252.42 40.3183 260.012 44.1176 260.012 50.6893ZM250.3 50.6893C250.3 48.1947 247.101 47.2343 240.398 47.2343C233.694 47.2343 230.557 48.1947 230.557 50.6893C230.557 53.1839 233.755 54.09 240.398 54.09C247.04 54.09 250.3 53.1235 250.3 50.6893ZM259.773 39.527H250.006V7.79785H259.81L259.773 39.527Z" fill="#656464"/>
<path d="M90.5718 20.3615V15.2455C89.945 11.0115 87.7935 7.14122 84.5105 4.34201C81.2275 1.54279 77.0323 0.00156553 72.6915 0L63.2183 0L78.7272 34.5922C81.8272 33.5053 84.568 31.6061 86.6549 29.0987C88.7419 26.5914 90.096 23.5707 90.5718 20.3615Z" fill="#00A69C"/>
<path d="M90.5718 20.3615C90.8172 18.6648 90.8172 16.9423 90.5718 15.2455V20.3615Z" fill="#00A69C"/>
<path d="M61.4353 35.6069H45.4668V60.9999H61.4905V35.7277L61.4353 35.6069Z" fill="#F6921E"/>
<path d="M45.4668 0V35.607H61.4353L45.4668 0Z" fill="#546F41"/>
<path d="M79.1867 35.6372L78.7272 34.6165C76.789 35.2932 74.7477 35.6384 72.6915 35.6372H61.4902V35.752L72.8202 61.0061H90.5902L79.1867 35.6372Z" fill="#1B75BB"/>
<path d="M72.6915 35.6372C74.7477 35.6384 76.789 35.2931 78.7272 34.6164L63.2182 0H61.4902V35.6372H72.6915Z" fill="#006B80"/>
<path d="M61.4902 35.7277V35.6069H61.4351L61.4902 35.7277Z" fill="#1B75BB"/>
<path d="M61.4905 35.607V0H45.4668L61.4353 35.607H61.4905Z" fill="#30533F"/>
<path d="M0 0V61H16.0175V35.7278L0 0Z" fill="#00A69C"/>
<path d="M33.751 35.6855V35.6795H16.1035L23.426 12.6542L17.7518 0H16.1035V35.6855H33.751Z" fill="#26A9E0"/>
<path d="M16.1034 35.6855V0H16.0176V35.7278L27.3475 61H45.0991L33.7508 35.6855H16.1034Z" fill="#26A9E0"/>
<path d="M16.0175 0H0L16.0175 35.7278V0Z" fill="#008F93"/>
<path d="M33.7508 35.6795H33.8488L45.0991 0.320131V0H27.4516L23.4258 12.6542L33.7508 35.6795Z" fill="#EB008B"/>
<path d="M45.2033 0H45.0991V0.320131L45.2033 0Z" fill="#EB008B"/>
<path d="M16.1035 35.6794H33.751L23.426 12.6542L16.1035 35.6794Z" fill="#702F8F"/>
</g>
<defs>
<clipPath id="clip0_471_3692">
<rect width="260" height="61" fill="white"/>
</clipPath>
</defs>
</svg>
