<svg width="150" height="36" viewBox="0 0 150 36" fill="none" xmlns="http://www.w3.org/2000/svg">
<g clip-path="url(#clip0_471_2642)">
<path d="M60.2812 7.41461H76.2672V28.5177H60.2812V7.41461ZM65.8173 24.2971H70.7276V11.6245H65.8173V24.2971ZM89.7114 20.4543H85.3243V35.9323H79.668V4.60205H85.3243V16.0412H89.7114V20.4543Z" fill="white"/>
<path d="M107.642 5.20448H112.87V34.6597H107.642V20.4008H103.753C102.049 24.0761 99.1222 27.2522 94.3144 29.997L91.1787 26.2826C94.8022 24.1794 97.1673 21.9372 98.6025 19.3314L92.0872 19.998L91.4615 15.5172L100.169 15.1857C100.345 14.2482 100.483 13.2786 100.589 12.2769H93.1195V8.01347H105.97C106.016 10.7447 105.748 13.4721 105.171 16.141H107.645L107.642 5.20448ZM119.842 35.9323H114.504V4.56284H119.842V35.9323Z" fill="white"/>
<path d="M142.583 21.6913C138.054 22.3579 133.841 22.4256 127.117 22.4256H124.229V6.71236H140.077V10.9223H129.825V12.4943H139.055V16.608H129.835V18.2478C134.852 18.2121 138.267 18.0767 142.06 17.5099L142.583 21.6913ZM150.007 29.9151C150.007 33.7935 145.659 36 138.694 36C131.73 36 127.41 33.7935 127.41 29.9151C127.41 26.0366 131.762 23.7944 138.694 23.7944C145.627 23.7944 150.007 26.0366 150.007 29.9151V29.9151ZM144.404 29.9151C144.404 28.4428 142.558 27.876 138.691 27.876C134.823 27.876 133.013 28.4428 133.013 29.9151C133.013 31.3873 134.859 31.922 138.691 31.922C142.523 31.922 144.404 31.3516 144.404 29.9151ZM149.869 23.3275H144.234V4.60205H149.89L149.869 23.3275Z" fill="white"/>
<path d="M52.2531 12.0166V8.99733C51.8914 6.49858 50.6502 4.21449 48.7561 2.5625C46.8621 0.9105 44.4418 0.000923916 41.9375 0L36.4722 0L45.4196 20.4151C47.2081 19.7736 48.7893 18.6528 49.9933 17.173C51.1973 15.6933 51.9786 13.9106 52.2531 12.0166V12.0166Z" fill="#00A69C"/>
<path d="M52.2529 12.0166C52.3945 11.0153 52.3945 9.99869 52.2529 8.99731V12.0166Z" fill="#00A69C"/>
<path d="M35.4436 21.014H26.231V36H35.4754V21.0853L35.4436 21.014Z" fill="#F6921E"/>
<path d="M26.231 0V21.014H35.4436L26.231 0Z" fill="#546F41"/>
<path d="M45.6846 21.0318L45.4195 20.4294C44.3013 20.8287 43.1236 21.0325 41.9374 21.0318H35.4751V21.0995L42.0116 36.0036H52.2635L45.6846 21.0318Z" fill="#1B75BB"/>
<path d="M41.9374 21.0318C43.1236 21.0325 44.3013 20.8287 45.4195 20.4293L36.472 0H35.4751V21.0318H41.9374Z" fill="#006B80"/>
<path d="M35.4758 21.0853V21.014H35.4434L35.4758 21.0853Z" fill="#1B75BB"/>
<path d="M35.4754 21.014V0H26.231L35.4436 21.014H35.4754Z" fill="#30533F"/>
<path d="M0 0V36H9.24088V21.0853L0 0Z" fill="#00A69C"/>
<path d="M19.4718 21.0603V21.0567H9.29053L13.515 7.46807L10.2415 0H9.29053V21.0603H19.4718Z" fill="#26A9E0"/>
<path d="M9.29022 21.0603V0H9.24072V21.0853L15.7772 36H26.0186L19.4715 21.0603H9.29022Z" fill="#26A9E0"/>
<path d="M9.24088 0H0L9.24088 21.0853V0Z" fill="#008F93"/>
<path d="M19.4714 21.0567H19.5279L26.0185 0.18893V0H15.8372L13.5146 7.46807L19.4714 21.0567Z" fill="#EB008B"/>
<path d="M26.0787 0H26.0186V0.18893L26.0787 0Z" fill="#EB008B"/>
<path d="M9.29053 21.0568H19.4718L13.515 7.46808L9.29053 21.0568Z" fill="#702F8F"/>
</g>
<defs>
<clipPath id="clip0_471_2642">
<rect width="150" height="36" fill="white"/>
</clipPath>
</defs>
</svg>
