<svg width="25" height="25" viewBox="0 0 25 25" fill="none" xmlns="http://www.w3.org/2000/svg">
<path d="M20.7275 10.5713H19.9854C19.3799 10.5713 18.8721 10.0488 18.8721 9.42871C18.8721 9.11621 19.0039 8.83301 19.2383 8.62305L19.7168 8.1543C20.1904 7.68555 20.1904 6.91895 19.7168 6.4502L18.6279 5.37109C18.4131 5.15625 18.0957 5.0293 17.7734 5.0293C17.4512 5.0293 17.1387 5.15625 16.9189 5.37109L16.46 5.83008C16.2402 6.07422 15.9473 6.20605 15.6299 6.20605C15.0049 6.20605 14.4824 5.69824 14.4824 5.09766V4.35059C14.4824 3.69141 13.9502 3.125 13.2861 3.125H11.8018C11.1377 3.125 10.6104 3.68652 10.6104 4.35059V5.09277C10.6104 5.69336 10.0879 6.20117 9.46289 6.20117C9.15039 6.20117 8.8623 6.06934 8.65234 5.83984L8.17871 5.37109C7.96387 5.15137 7.64648 5.0293 7.32422 5.0293C7.00195 5.0293 6.68945 5.15625 6.46973 5.37109L5.37109 6.44531C4.90234 6.91406 4.90234 7.68066 5.37109 8.14453L5.83008 8.60352C6.07422 8.82324 6.21094 9.11621 6.21094 9.42871C6.21094 10.0537 5.70312 10.5713 5.09766 10.5713H4.35547C3.68652 10.5713 3.125 11.0938 3.125 11.7578V12.5V13.2422C3.125 13.9014 3.68652 14.4287 4.35547 14.4287H5.09766C5.70312 14.4287 6.21094 14.9512 6.21094 15.5713C6.21094 15.8838 6.07422 16.1768 5.83008 16.3965L5.37109 16.8506C4.90234 17.3193 4.90234 18.0859 5.37109 18.5498L6.45996 19.6338C6.6748 19.8535 6.99219 19.9756 7.31445 19.9756C7.63672 19.9756 7.94922 19.8486 8.16895 19.6338L8.64258 19.165C8.84766 18.9355 9.14063 18.8037 9.45313 18.8037C10.0781 18.8037 10.6006 19.3115 10.6006 19.9121V20.6543C10.6006 21.3135 11.1279 21.8799 11.7969 21.8799H13.2812C13.9453 21.8799 14.4727 21.3184 14.4727 20.6543V19.9121C14.4727 19.3115 14.9951 18.8037 15.6201 18.8037C15.9326 18.8037 16.2256 18.9404 16.4502 19.1797L16.9092 19.6387C17.1289 19.8535 17.4414 19.9805 17.7637 19.9805C18.0859 19.9805 18.3984 19.8535 18.6182 19.6387L19.707 18.5547C20.1758 18.0859 20.1758 17.3193 19.707 16.8506L19.2285 16.3818C18.9941 16.1719 18.8623 15.8838 18.8623 15.5762C18.8623 14.9512 19.3701 14.4336 19.9756 14.4336H20.7178C21.3818 14.4336 21.8555 13.9111 21.8555 13.2471V12.5V11.7578C21.8652 11.0938 21.3916 10.5713 20.7275 10.5713ZM16.4453 12.5C16.4453 14.6533 14.7021 16.4062 12.5391 16.4062C10.376 16.4062 8.63281 14.6533 8.63281 12.5C8.63281 10.3467 10.376 8.59375 12.5391 8.59375C14.7021 8.59375 16.4453 10.3467 16.4453 12.5Z" fill="white"/>
</svg>
