<svg width="16" height="17" viewBox="0 0 16 17" fill="none" xmlns="http://www.w3.org/2000/svg">
<path d="M12.3901 7.44997L4.79013 2.72497C4.56151 2.5833 4.29899 2.5057 4.03008 2.5003C3.76117 2.49491 3.49576 2.56192 3.26163 2.69432C3.02751 2.82671 2.83329 3.01962 2.69932 3.25285C2.56535 3.48608 2.49655 3.75103 2.50013 4.01997V13.43C2.50013 13.8278 2.65817 14.2093 2.93947 14.4906C3.22078 14.7719 3.60231 14.93 4.00013 14.93C4.27735 14.936 4.55081 14.865 4.79013 14.725L12.3901 10.02C12.6072 9.88545 12.7863 9.69773 12.9105 9.47461C13.0348 9.25149 13.1 9.00035 13.1 8.74498C13.1 8.4896 13.0348 8.23846 12.9105 8.01534C12.7863 7.79221 12.6072 7.6045 12.3901 7.46997V7.44997Z" fill="#29A7E1"/>
</svg>
