<svg width="16" height="17" viewBox="0 0 16 17" fill="none" xmlns="http://www.w3.org/2000/svg">
<path d="M8.75393 7.74587C9.17047 8.1624 9.17047 8.8376 8.75393 9.25413C8.3374 9.67067 7.6622 9.67067 7.24567 9.25413C6.95553 8.964 5.6222 6.89787 4.8414 5.6728C4.70273 5.45574 4.95553 5.20294 5.1726 5.3416C6.39767 6.1224 8.4638 7.4552 8.75393 7.74587Z" fill="#29A7E1"/>
<path d="M3.5093 4.72934C2.65117 5.74854 2.1333 7.0632 2.1333 8.5C2.1333 11.74 4.75997 14.3667 7.99997 14.3667C11.24 14.3667 13.8666 11.74 13.8666 8.5C13.8666 5.26 11.24 2.63334 7.99997 2.63334V4.76667" stroke="#29A7E1" stroke-width="2" stroke-miterlimit="10" stroke-linecap="round"/>
</svg>
